<?xml version="1.0" standalone="no"?><!DOCTYPE svg PUBLIC "-//W3C//DTD SVG 1.1//EN" "http://www.w3.org/Graphics/SVG/1.1/DTD/svg11.dtd"><svg class="icon" width="200px" height="200.00px" viewBox="0 0 1024 1024" version="1.1" xmlns="http://www.w3.org/2000/svg"><path d="M417.824386 420.594257l2.13067-18.749896-12.357886-42.6134-14.062422-42.6134-17.897628-54.545152c0 22.158968 2.556804 42.6134 4.26134 66.05077l13.210154 61.363296a266.759883 266.759883 0 0 1 0 42.6134H379.89846a152.129838 152.129838 0 0 0-6.39201-30.255514C366.688306 378.833125 361.574698 383.520599 341.5464 369.884311s-15.340824-24.715772-27.272576-33.238452a24.715772 24.715772 0 0 1-9.374948-23.43737A66.903038 66.903038 0 0 1 298.933 282.952975c0-10.227216 3.835206-20.028298 5.965876-30.255513v-27.69871c5.113608-15.766958 6.39201-28.977112 11.079484-48.153142 0 0 12.78402-15.766958 20.454432-14.488556a78.83479 78.83479 0 0 1 17.04536 4.687474c9.374948 3.409072 8.948814 11.079484 14.91469 17.04536a183.663754 183.663754 0 0 0 20.028298 11.079484 164.913858 164.913858 0 0 1 23.011236 22.585102c12.357886 14.488556 29.82938 24.715772 32.386184 46.448605a1009.937578 1009.937578 0 0 1-7.244278 105.681232c-5.113608 21.3067-10.227216 46.448606-11.931752 51.13608a65.198502 65.198502 0 0 1-4.26134 11.079484z" fill="#FFD20A" /><path d="M150.638369 762.353725a17.897628 17.897628 0 0 1-4.687474 12.357885 14.488556 14.488556 0 0 1-15.340824 0 27.272576 27.272576 0 0 1-11.931752-7.670411 95.027882 95.027882 0 0 1-13.636288-62.215564A181.533084 181.533084 0 0 1 128.479401 627.695381c5.113608-9.801082 7.244278-17.471494 17.04536-23.43737s32.386184-16.619226 44.74407-10.65335a294.032459 294.032459 0 0 0-40.056596 161.504786 42.6134 42.6134 0 0 1 0.426134 7.244278zM554.6134 118.891386v2.982938c-4.26134 8.096546-16.619226 31.533916-2.556804 36.647524a14.488556 14.488556 0 0 0 13.636288-2.982938 46.87474 46.87474 0 0 0 9.801082-10.65335 966.898044 966.898044 0 0 1 127.8402-144.459426 37.925926 37.925926 0 0 0-26.846442 9.374948 767.041199 767.041199 0 0 0-92.044944 77.982522 201.135248 201.135248 0 0 0-29.82938 31.107782z" fill="#733B0D" /><path d="M203.905119 560.366209a181.533084 181.533084 0 0 1-37.073658 22.158968A201.135248 201.135248 0 0 1 43.252601 596.587599a46.022472 46.022472 0 0 1-21.3067-9.374948c-8.096546-7.670412-5.113608-11.931752 0-18.323762a359.657095 359.657095 0 0 1 42.6134-32.386184 363.492301 363.492301 0 0 1 227.129421-55.39742l-141.902621 42.6134 106.533499-23.43737a192.186434 192.186434 0 0 1-52.414481 60.084894zM218.393675 294.458593l71.164377 65.198502a267.186017 267.186017 0 0 0-42.613399-18.323762 109.942572 109.942572 0 0 0-20.880566-8.948814c-6.39201 0-12.357886 2.982938-18.749896 4.26134a29.403246 29.403246 0 0 1-20.028298-2.13067A45.170204 45.170204 0 0 1 171.092801 315.765293a511.360799 511.360799 0 0 1-48.153142-106.107365L230.751561 264.203079a134.658344 134.658344 0 0 1 54.119017 40.056596c6.39201 10.227216 10.227216 21.3067 16.619226 31.533916a303.833541 303.833541 0 0 0 33.238452 37.073658A144.459426 144.459426 0 0 1 365.836038 426.133999a9.374948 9.374948 0 0 1 0 8.948814 5.965876 5.965876 0 0 1-7.670412 0 16.193092 16.193092 0 0 1-5.539742-6.39201 413.776113 413.776113 0 0 0-134.232209-134.23221zM455.324178 330.679983c3.409072 0 5.113608-20.028298 5.539742-23.863504a106.107366 106.107366 0 0 0 0-25.994174 115.908448 115.908448 0 0 0-17.897628-48.153141c-6.39201-8.948814-7.670412-10.227216-3.835206-20.880566a250.992926 250.992926 0 0 1 10.227216-24.715772 320.026633 320.026633 0 0 1 27.272576-46.87474 298.293799 298.293799 0 0 1 61.78943-63.067832 592.326259 592.326259 0 0 1-2.982938 145.311694 247.15772 247.15772 0 0 1-19.602164 69.885975 109.516438 109.516438 0 0 1-49.431544 51.562214A304.259675 304.259675 0 0 0 512 162.783188l-42.6134 143.181023c0 9.801082-5.113608 20.880566-14.062422 24.715772zM692.254682 412.071577s-28.550978-42.6134-38.778194-44.74407 14.062422-17.471494 16.193092-20.028298 9.801082-6.818144 11.505618-12.78402a74.147316 74.147316 0 0 0 0-22.158968c-4.687474-2.982938 0-9.801082 0-9.801082a371.162713 371.162713 0 0 1 30.681648-35.369122 287.640449 287.640449 0 0 0 22.158968-23.011235l5.539742-5.965876s2.13067 22.158968 2.13067 29.403245a91.61881 91.61881 0 0 0 0 24.289638 71.164378 71.164378 0 0 1 2.13067 22.585102c0 8.096546-2.556804 15.340824-2.982938 21.3067a231.816896 231.816896 0 0 1-2.982938 50.283812c-3.409072 8.948814-20.880566 61.78943-22.158968 72.016646a127.8402 127.8402 0 0 1-13.636288 33.238452c0 2.556804-3.409072 10.227216-5.965876 8.948814a363.918435 363.918435 0 0 1 9.374948-61.78943c2.556804-12.357886 14.91469-65.624636 15.340824-76.277986a196.02164 196.02164 0 0 0 0-38.778194M785.151893 632.808989a343.890137 343.890137 0 0 1 34.942988-8.096546 65.624636 65.624636 0 0 0 31.533916-10.227216c6.39201-5.539742 11.931752-14.91469 42.6134-5.965876s37.925926 20.454432 65.624636 28.550978a359.657095 359.657095 0 0 1 44.74407 21.732834l-54.545152 20.028298a281.674573 281.674573 0 0 1-60.084894 16.193092l-47.300874 2.982938a127.8402 127.8402 0 0 1-35.369122 0c-4.687474 0 2.982938-14.91469 5.539742-21.3067s19.17603-3.835206 29.82938-3.409072a80.113192 80.113192 0 0 0 16.193092 0s-9.801082-9.374948-16.193092-8.096546-7.670412 5.113608-17.04536 0-7.670412 0-16.193092 0 0 0-5.965876-2.556804a102.698294 102.698294 0 0 1-18.323762-29.82938zM586.57345 818.177278s8.52268 48.579276 11.505618 61.363296a62.641698 62.641698 0 0 0 12.78402 25.141906 89.48814 89.48814 0 0 0 0-28.977112 262.072409 262.072409 0 0 1-5.539742-36.647524c0-12.357886 0-33.238452-3.835206-38.778194s5.965876-13.210154 10.65335-21.732834a92.471078 92.471078 0 0 0 8.096546-37.073657 49.00541 49.00541 0 0 0 13.210154 25.56804 62.641698 62.641698 0 0 1 16.193092 37.073657 241.617978 241.617978 0 0 1 12.78402 99.715356 542.042447 542.042447 0 0 1-19.602164 85.2268c0 5.113608-8.096546 27.272576-11.079484 34.942988a557.809405 557.809405 0 0 0-31.533916-58.380358c-9.801082-13.210154-45.596338-112.92551-36.22139-135.084478a123.57886 123.57886 0 0 1 22.585102-12.357886zM422.085726 641.331669a529.684561 529.684561 0 0 0-70.31211 90.766542c-17.897628 35.795256-11.079484 25.994174 9.374948 3.835206s49.00541-61.363296 49.00541-61.363296 16.619226-21.3067 24.289638-22.585102 19.17603 22.158968 32.386184 25.994174a322.583437 322.583437 0 0 1-31.107782 56.249688A330.679983 330.679983 0 0 1 315.97836 822.438618h-7.670412a66.903038 66.903038 0 0 0-14.488556 8.948814 27.272576 27.272576 0 0 1-14.062422 6.39201c-2.982938 0 9.374948-27.272576 11.931752-34.09072a1090.05077 1090.05077 0 0 1 42.6134-102.272159 403.548897 403.548897 0 0 1 62.641698-69.885976c4.687474-3.409072 4.687474 0 4.687474 0a92.044944 92.044944 0 0 1 20.454432 9.801082z" fill="#77A83B" /><path d="M275.069496 596.587599s-45.170204 85.2268 12.78402 3.835206 25.994174-46.448606 77.556388-102.27216a34.942988 34.942988 0 0 1 21.732834 38.35206 188.777362 188.777362 0 0 1-49.431544 106.959634 338.350395 338.350395 0 0 1-46.87474 28.124844c-17.04536 5.965876-57.52809 24.289638-65.198501 27.272576a112.499376 112.499376 0 0 0-37.073658 18.749896l-9.374948 2.982938s-8.096546-8.52268-4.26134-35.369122a485.792759 485.792759 0 0 1 36.22139-102.698294 155.112776 155.112776 0 0 1 73.721181-85.2268 77.556388 77.556388 0 0 1 42.6134-8.096546 39.204328 39.204328 0 0 1 10.227216 2.556804c6.818144 3.835206 4.687474 8.52268 4.687474 8.52268A1009.08531 1009.08531 0 0 0 275.069496 596.587599z" fill="#FFD20A" /><path d="M301.489804 468.747399a81.391594 81.391594 0 0 0-14.062422-2.556804c-23.011236-2.13067-46.448606 2.13067-69.885975 0a115.482314 115.482314 0 0 1-85.2268-62.215564 68.607574 68.607574 0 0 1-8.948814-25.141906c0-11.079484 10.65335-13.636288 19.602164-17.897628A121.44819 121.44819 0 0 1 211.149397 340.907199a136.789014 136.789014 0 0 1 40.48273 13.210154 324.287973 324.287973 0 0 1 105.681231 81.391594l-6.818144 10.65335a315.339159 315.339159 0 0 0-101.846025-55.39742 95.454016 95.454016 0 0 0 42.613399 38.35206 340.907199 340.907199 0 0 1 51.988348 28.124844 37.499792 37.499792 0 0 1 17.04536 24.715772c0 10.65335-8.52268 21.732834-18.323762 19.17603a55.39742 55.39742 0 0 0-40.48273-32.386184zM671.80025 317.895963a8.52268 8.52268 0 0 1 0 11.931752 61.363296 61.363296 0 0 1-10.65335 7.670412 48.579276 48.579276 0 0 0-17.04536 26.420308c-3.409072 10.227216-5.113608 20.454432-8.52268 30.681648a89.062006 89.062006 0 0 1-55.823554 55.39742 66.903038 66.903038 0 0 1-38.778194 0 319.174365 319.174365 0 0 1-31.107782-12.78402 85.2268 85.2268 0 0 0-52.840616 0l109.090304-69.459842a419.741989 419.741989 0 0 1-57.52809 23.863504c-15.340824 7.244278-28.977112 17.04536-42.6134 25.56804l-42.6134 25.56804 8.52268-20.028298v4.687474a155.53891 155.53891 0 0 1 9.801082-31.107782 148.294632 148.294632 0 0 1 63.067832-68.18144 189.203496 189.203496 0 0 1 98.01082-19.17603" fill="#FFD20A" /><path d="M648.789014 383.520599a85.2268 85.2268 0 0 1-31.96005 59.65876 88.209738 88.209738 0 0 1-40.056596 18.323762c-17.04536 2.556804-22.158968 2.982938-17.04536 21.732834a383.520599 383.520599 0 0 0 37.499792 95.027882c7.670412 14.062422 18.749896 28.550978 34.516854 29.82938a298.293799 298.293799 0 0 1-6.818144-111.220974 340.907199 340.907199 0 0 1 20.880566 114.630046c6.818144-26.846442 18.749896-52.414482 27.69871-78.408656a189.203496 189.203496 0 0 0 14.062422-80.96546A85.2268 85.2268 0 0 0 648.789014 383.520599z" fill="#FFD20A" /><path d="M488.56263 576.559301c8.948814 0 15.766958 10.65335 22.585102 16.193092l31.96005 26.846442a229.260092 229.260092 0 0 0-42.6134-61.363296 176.419476 176.419476 0 0 1 35.795256-11.931752 55.39742 55.39742 0 0 1 37.073658 5.113608 64.772368 64.772368 0 0 1 27.272576 51.988348c0 20.454432 0 42.6134 2.556804 60.937162a55.823554 55.823554 0 0 0 33.664586 47.300874 204.970454 204.970454 0 0 1-112.92551-14.062422 202.839784 202.839784 0 0 1-87.783604-71.590512c-3.835206-5.539742-7.670412-12.78402-4.687474-18.749896a24.715772 24.715772 0 0 1 8.948814-7.244278 205.822722 205.822722 0 0 1 42.6134-23.011236zM666.260508 604.684145a12.78402 12.78402 0 0 1 0-4.26134 94.175614 94.175614 0 0 1 7.670412-23.43737 170.4536 170.4536 0 0 1 25.994174-42.6134 158.521848 158.521848 0 0 1 81.391593-51.988348 318.322097 318.322097 0 0 1 129.97087 2.556804c0 14.488556-2.556804 12.78402-11.931752 22.158968a88.209738 88.209738 0 0 0-15.766958 25.56804 320.452767 320.452767 0 0 1-16.619226 42.6134 81.817728 81.817728 0 0 1-66.903038 42.6134 147.442364 147.442364 0 0 1-33.664585-2.556804l-67.755306-10.227216 91.618809-63.493966a207.101124 207.101124 0 0 0-94.601747 50.709946 61.363296 61.363296 0 0 1-14.062422 11.505618c-7.244278 4.687474-13.210154 5.539742-15.340824 0.852268zM791.970037 702.694965a67.329172 67.329172 0 0 0-36.647523 9.374948c-5.539742 2.556804-11.931752 5.965876-12.78402 12.357886a18.323762 18.323762 0 0 0 5.539742 13.210154l34.516853 42.613399a123.152726 123.152726 0 0 1-53.266749-42.613399l-54.119018 33.664585c-11.079484 6.818144-9.374948 7.670412-2.13067 17.897628a236.078236 236.078236 0 0 0 100.567623 79.687058 151.703704 151.703704 0 0 0 101.419892 8.52268 68.607574 68.607574 0 0 1-31.533916-42.6134 298.293799 298.293799 0 0 1-6.39201-54.971286 119.743654 119.743654 0 0 0-14.488556-55.397419 45.596338 45.596338 0 0 0-29.403246-22.158968zM413.98918 835.222638c4.26134-13.210154 8.948814-25.994174 8.948814-25.994174a164.487724 164.487724 0 0 1 8.52268-18.749896 375.850187 375.850187 0 0 0 23.863504-40.056595 371.162713 371.162713 0 0 1 20.028298-46.448606 22.585102 22.585102 0 0 1 11.079484-7.244278s42.6134 16.619226 51.562214 20.880566-9.374948 17.897628-11.079484 23.863504 3.409072 12.78402 3.409072 17.471494 7.244278-5.113608 7.244278-5.113608a6.39201 6.39201 0 0 1 0-8.096546c2.982938-4.687474 13.210154-16.619226 13.210154-16.619226l8.52268-5.965876s-5.965876 0 10.227216 2.556804a461.076987 461.076987 0 0 0 47.727008 0 85.2268 85.2268 0 0 1-51.988348 91.618809l-76.70412 36.22139c-11.931752 5.965876-42.6134 17.04536-51.13608 21.3067a42.6134 42.6134 0 0 0-11.505618 11.505618s-17.897628 4.26134-16.193092-28.124844" fill="#FFD20A" /><path d="M415.693716 894.881398s-24.289638 109.942572 17.471494 124.431128a19.602164 19.602164 0 0 0 24.715772-8.52268s-8.948814-28.977112-11.931752-42.6134a155.53891 155.53891 0 0 1 30.255514-80.113192l14.91469-19.602164h-7.244278a102.698294 102.698294 0 0 1-23.43737 12.357886zM750.63504 474.713275s187.49896-208.379526 226.277153-222.441947a46.87474 46.87474 0 0 1 17.471494-8.096546h11.505618S941.116937 309.373283 915.122763 340.907199A1371.725343 1371.725343 0 0 1 810.293799 463.207657a198.15231 198.15231 0 0 0-34.516854 6.818144c-5.965876 0.852268-14.488556 7.670412-25.141905 4.687474z" fill="#733B0D" /><path d="M406.744902 454.258843l-26.846442-5.539742c-5.965876 0-17.04536-3.409072-17.897628 4.687474a42.6134 42.6134 0 0 0 5.965876 20.028298 141.476488 141.476488 0 0 1 8.52268 20.028298c0 4.687474 10.227216 24.715772 17.471494 19.17603a101.419892 101.419892 0 0 0 14.062422-57.954224c-2.556804-15.340824-0.852268-0.426134-1.278402-0.426134zM456.176446 474.287141s-14.062422 30.681648-18.323762 42.6134-19.602164 30.681648-2.556804 37.925926 18.323762 0 21.3067-19.17603a22.585102 22.585102 0 0 1 38.35206-14.062422c18.749896 12.78402 6.818144 7.244278 6.818144 7.244278s12.78402-3.835206 11.931752-13.636288 5.965876-17.04536 3.409072-20.880566a73.721182 73.721182 0 0 0-13.210154-11.079484 13.636288 13.636288 0 0 1-6.818144 2.556804c-4.26134 0-15.340824-9.374948-15.340824-9.374948a26.420308 26.420308 0 0 0-25.56804-2.13067zM607.027882 618.320433a97.158552 97.158552 0 0 1 42.6134 0 26.846442 26.846442 0 0 0-7.244278 13.210154 238.208906 238.208906 0 0 0-4.687474 25.141906c0 10.227216-2.982938 23.863504-6.39201 25.141906s-8.096546-16.193092-11.505618-27.272576-16.619226-23.863504-12.78402-36.22139zM700.777362 639.200999l-29.403246 55.823554a45.596338 45.596338 0 0 0-5.965876 16.619226 15.340824 15.340824 0 0 0 8.096546 14.488556 14.91469 14.91469 0 0 0 16.193092-5.965876 44.74407 44.74407 0 0 0 7.244278-16.619226 31.96005 31.96005 0 0 1 9.374948-15.340824 22.585102 22.585102 0 0 1 22.158968-2.982938 67.755306 67.755306 0 0 1 20.028298 11.505618 32.386184 32.386184 0 0 0 4.26134-32.812318c-8.948814-19.17603-33.664586-20.880566-51.988348-24.715772z" fill="#F89C1C" /><path d="M554.6134 492.184769c3.409072-8.948814-23.011236-19.17603-23.011236-19.17603l-13.210154-16.619226-27.272576-6.818144h-34.516854l-30.255514 5.965876-11.931752 6.818144s-6.818144 37.073658-14.488556 72.016646-11.931752 49.857678 0 57.101956a44.74407 44.74407 0 0 0 47.300874-5.113608c18.749896-11.079484 9.801082-17.04536 23.011236-12.78402s27.272576-14.488556 31.107782-20.880566 51.562214-10.227216 60.511028-34.09072-7.244278-17.897628-7.244278-26.420308z m-31.107782 37.925926c-11.505618 12.78402-44.74407-5.539742-50.283812 0s-15.340824 33.664586-36.22139 39.204328-23.43737-25.994174-23.43737-25.994174 14.488556-32.386184 14.488556-34.09072 14.488556-40.056596 20.880566-40.056596c0 0 28.977112 0 34.516854 3.409072s7.244278 0 19.17603 4.687474 37.925926 36.22139 22.585102 52.840616zM793.248439 662.212235c2.982938-8.52268-23.011236-19.17603-23.011236-19.17603l-13.210153-16.619226-27.272576-6.818144h-34.516854l-30.255514 6.39201-11.931752 6.818144s-7.244278 36.647524-14.488556 72.016646-11.931752 49.857678-2.13067 57.101956a46.022472 46.022472 0 0 0 46.022472-6.39201c18.323762-11.079484 9.801082-17.04536 23.011236-12.78402s27.272576-14.488556 31.107782-20.880566 51.562214-10.227216 60.511027-34.09072-7.244278-17.04536-3.835206-25.56804z m-31.107781 37.925926c-11.505618 12.78402-45.170204-5.539742-50.283812 0s-15.340824 34.09072-36.22139 39.630462-23.43737-25.994174-23.43737-25.994174 14.062422-32.386184 14.488556-34.516854 15.766958-40.056596 20.880566-40.056596c0 0 28.977112 0 34.516854 3.409072s7.244278 0 19.17603 5.113608 36.22139 34.09072 20.880566 52.414482z" fill="#FFF100" /></svg>