<?xml version="1.0" standalone="no"?><!DOCTYPE svg PUBLIC "-//W3C//DTD SVG 1.1//EN" "http://www.w3.org/Graphics/SVG/1.1/DTD/svg11.dtd"><svg t="1716278896073" class="icon" viewBox="0 0 1024 1024" version="1.1" xmlns="http://www.w3.org/2000/svg" p-id="3007" xmlns:xlink="http://www.w3.org/1999/xlink" width="200" height="200"><path d="M514.1 687.6m-10 0a10 10 0 1 0 20 0 10 10 0 1 0-20 0Z" fill="#3E3A39" p-id="3008"></path><path d="M838.4 267.6m-10 0a10 10 0 1 0 20 0 10 10 0 1 0-20 0Z" fill="#3E3A39" p-id="3009"></path><path d="M760.2 493.8c-5.5 0-10 4.5-10 10 0 47.5-18.5 92-52 125.5s-78.1 52-125.5 52c-5.5 0-10 4.5-10 10s4.5 10 10 10c52.8 0 102.4-20.5 139.7-57.8 37.3-37.3 57.8-86.9 57.8-139.7 0-5.6-4.4-10-10-10z" fill="#E285A8" p-id="3010"></path><path d="M950 329.3v-0.2c-7.3-37.2-22.1-68.9-44.1-94.3-19.5-22.5-43.7-38.6-69.9-46.6-37.7-11.5-74-4.6-97.1 18.4l7.1 7.1-7.7-6.4-65.6 78.5c-34.4-47.8-74.5-55.4-116.8-63.5-59.1-11.3-126.1-24-208.9-145.6-1.8-2.6-4.8-4.4-8.3-4.4-5.5 0-10 4.5-10 10 0 58.7 3 116.7 8.5 163.4 2.5 20.9 5.3 38.4 8.3 50.5 0.7 3 1.5 6 2.4 8.8-3.5 0.7-6.9 1.5-10.5 2.2-63.6 13.7-142.8 30.6-253.1 24h-0.6c-5.5 0-10 4.5-10 10 0 4.3 2.7 8 6.6 9.4 4.8 3.1 16.5 24.6 26.9 43.5 19.5 35.7 46.1 84.5 83.5 128.8 44.8 53.1 94.8 86.7 148.7 99.8 15 3.7 30.4 5.8 46.2 6.3l-167 199.7c-1.5 1.7-2.3 4-2.3 6.4 0 3.1 1.5 5.9 3.7 7.8l132 106.5c1.7 1.4 3.9 2.2 6.3 2.2 4 0 7.5-2.4 9.1-5.9l79.8-175.6h146.6c48 0 89.6-8.4 123.7-24.9 33-16 60.2-40.3 80.8-72.1 36.9-56.9 54.9-140.8 54.9-256.5 0-31 4.2-47.8 14.7-58.2 11.9-11.8 34.9-17.3 72.4-17.3 5.5 0 10-4.5 10-10-0.1-0.5-0.1-1.1-0.3-1.8zM451.1 208.5c37.2 21.2 71.2 27.7 101.1 33.4 42.7 8.1 76.8 14.6 107.2 59.7l-47.3 56.5c-47.1-39.4-90.5-60.5-136-65.9-35.3-4.2-70.2 0.9-108.5 8.6-2.8-7.7-7.4-27.6-11.7-67.5-3.8-35.5-6.1-77.1-6.9-119.7 32.9 43.5 66.5 74.6 102.1 94.9z m402.6 135.9c-18.1 18-20.6 45.4-20.6 72.3 0 111.7-16.9 192-51.7 245.6-38.3 59.1-99.7 87.9-187.7 87.9h-153c-24.3 0-50.5 6.1-70.2 16.3-27.3 14.2-41.8 35.3-41.8 61.2 0 5.5 4.5 10 10 10s10-4.5 10-10c0-18.2 10.4-32.8 31-43.4 14.2-7.4 30.8-11.4 45-13.1l-70.3 154.6-114-92L412 628.6c58.3-4.2 121-28.6 187.3-73.1 2.7-1.8 4.4-4.8 4.4-8.3 0-5.5-4.5-10-10-10-2.1 0-4 0.6-5.6 1.7-47.6 32-93.4 53.3-136.1 63.4-37.8 8.9-74.1 9.3-107.8 1-49.7-12.1-96.1-43.5-138.1-93.3-12.5-14.9-23.9-30.3-34.1-45.7 18.5 5.5 45.2 12.3 76.5 16.9 22.3 3.2 43.9 4.8 64.7 4.8 11.9 0 23.5-0.5 34.7-1.6 39.1-3.6 74.4-13.6 105-29.7 3.2-1.7 5.3-5 5.3-8.8 0-5.5-4.5-10-10-10-1.7 0-3.3 0.4-4.7 1.2-64.1 33.7-139.7 31.9-191.8 24.5-48.4-6.9-86.1-19.9-96.8-23.8-11.7-19.2-21.6-37.5-30.2-53.2-7.5-13.7-13.3-24.3-18.3-32.2 100.9 3.3 174.9-12.5 235.1-25.5 50.9-10.9 91.1-19.5 132.2-14.7 42 5 81.1 24 125.6 61.3l-44.3 53c-1.5 1.7-2.3 4-2.3 6.4 0 5.5 4.5 10 10 10 3.1 0 5.8-1.4 7.7-3.6l183-218.7c17.5-17.3 46.9-22.3 76.8-13.2 22.6 6.9 43.6 20.9 60.6 40.6 17.4 20.1 29.8 44.7 37 73.5-36.5 1.3-59.6 8.5-74.1 22.9z" fill="#3E3A39" p-id="3011"></path></svg>